<svg id="ehtQjce6DwZ1" xmlns="http://www.w3.org/2000/svg" xmlns:xlink="http://www.w3.org/1999/xlink" viewBox="0 0 937 937" shape-rendering="geometricPrecision" text-rendering="geometricPrecision" project-id="0f5b3ebb86ab483987fad5d670d22edf" export-id="c5fb3a85cb1f4e9585f30b8c7feb63fd" cached="false"><defs><filter id="ehtQjce6DwZ2-filter" x="-150%" width="400%" y="-150%" height="400%"><feComponentTransfer id="ehtQjce6DwZ2-filter-invert-0" result="result"><feFuncR id="ehtQjce6DwZ2-filter-invert-0-R" type="table" tableValues="1 0"/><feFuncG id="ehtQjce6DwZ2-filter-invert-0-G" type="table" tableValues="1 0"/><feFuncB id="ehtQjce6DwZ2-filter-invert-0-B" type="table" tableValues="1 0"/></feComponentTransfer></filter></defs><path d="M168.538647,265.151907l-.306061-101.057127c-12.846353-97.369367-147.111464-110.630804-164.16356,0v446.734373C-0.231916,767.092318,152.755414,932.565557,322.021549,931.446895c125.916937,8.227363,138.244912-165.552978,0-164.220062-76.936622-2.892914-156.74512-81.387378-153.788965-163.077916v-173.559467h97.954807c90.598279-20.288698,102.182959-142.818453,0-165.437543h-97.648744Z" transform="translate(.000007 0.000001)" fill="#fff" stroke="rgba(63,87,135,0)" stroke-width="1.874"/><path d="M684.528896,696.320205l-.778879,156.274858c-17.610306,95.128083-139.047803,98.541956-162.450998,0v-526.055712C524.688155,168.268105,669.056315,-8.690761,845.183796,2.654575c130.261639,12.148888,99.553311,160.676609,0,161.440206-99.60414,3.907898-156.011823,94.41794-160.071493,160.071493v209.453316h91.899506c88.726284,2.264777,113.580645,141.700811,0,162.14054l-92.482913.560075Z" transform="translate(.00001 0)" fill="#fff" stroke="rgba(63,87,135,0)" stroke-width="1.874"/></svg>
